<svg xmlns="http://www.w3.org/2000/svg" version="1.1" xmlns:xlink="http://www.w3.org/1999/xlink" width="2000" height="110" viewBox="0 0 2000 110"><svg xml:space="preserve" width="2000" height="110" data-version="2" data-id="lg_UfIXA5HMMUDyouoksE" viewBox="0 0 573 110" x="0" y="0"><rect width="100%" height="100%" fill="transparent"></rect><path fill="#fff" d="M128.281 73.844v-42h9.96q5.1 0 7.44 2.37 2.34 2.37 2.34 7.29v1.68q0 3.24-1.05 5.28t-3.21 2.94v.12q4.92 1.68 4.92 8.76v3.6q0 4.86-2.55 7.41t-7.47 2.55zm6.6-24.9h2.58q1.98 0 2.97-1.02.99-1.02.99-3.42v-2.34q0-2.28-.81-3.3t-2.55-1.02h-3.18zm0 18.9h3.78q1.74 0 2.58-.93.84-.93.84-3.21v-3.66q0-2.88-.99-3.99-.99-1.11-3.27-1.11h-2.94z" paint-order="stroke"></path><rect width="20.4" height="42" x="-10.2" y="-21" fill="none" rx="0" ry="0" transform="translate(138.98 53.34)"></rect><path fill="#fff" d="M152.521 73.844v-42h9.96q5.1 0 7.44 2.37 2.34 2.37 2.34 7.29v1.68q0 3.24-1.05 5.28t-3.21 2.94v.12q4.92 1.68 4.92 8.76v3.6q0 4.86-2.55 7.41t-7.47 2.55zm6.6-24.9h2.58q1.98 0 2.97-1.02.99-1.02.99-3.42v-2.34q0-2.28-.81-3.3t-2.55-1.02h-3.18zm0 18.9h3.78q1.74 0 2.58-.93.84-.93.84-3.21v-3.66q0-2.88-.99-3.99-.99-1.11-3.27-1.11h-2.94z" paint-order="stroke"></path><rect width="20.4" height="42" x="-10.2" y="-21" fill="none" rx="0" ry="0" transform="translate(163.22 53.34)"></rect><circle r="59.32" fill="#819eff" transform="translate(59.4 55)scale(.9089)"></circle><path fill="#819eff" d="M135.505 83.9V19.5h15.27q7.82 0 11.41 3.63 3.59 3.64 3.59 11.18v2.58q0 4.97-1.61 8.09-1.61 3.13-4.92 4.51v.19q7.54 2.57 7.54 13.43v5.52q0 7.45-3.91 11.36-3.91 3.91-11.45 3.91zm10.12-38.18h3.96q3.03 0 4.55-1.56 1.52-1.57 1.52-5.25v-3.59q0-3.49-1.24-5.06-1.25-1.56-3.91-1.56h-4.88zm0 28.98h5.8q2.66 0 3.95-1.43 1.29-1.42 1.29-4.92v-5.61q0-4.42-1.52-6.12-1.52-1.7-5.01-1.7h-4.51z"></path><rect width="31.28" height="64.4" x="-15.64" y="-32.2" fill="none" rx="0" ry="0" transform="translate(151.65 52.2)"></rect><path fill="#819eff" d="M187.395 84.82q-7.36 0-11.23-4.19-3.86-4.18-3.86-12V19.5h10.12v49.86q0 3.32 1.33 4.79 1.34 1.47 3.82 1.47 2.49 0 3.82-1.47 1.33-1.47 1.33-4.79V19.5h9.76v49.13q0 7.82-3.87 12-3.86 4.19-11.22 4.19"></path><rect width="30.18" height="65.32" x="-15.09" y="-32.66" fill="none" rx="0" ry="0" transform="translate(187.9 52.66)"></rect><path fill="#819eff" d="M209.655 83.9V19.5h15.46q7.54 0 11.31 4.05 3.78 4.05 3.78 11.87v32.56q0 7.82-3.78 11.87-3.77 4.05-11.31 4.05zm10.12-9.2h5.15q2.49 0 3.82-1.47 1.34-1.47 1.34-4.79V34.96q0-3.32-1.34-4.79-1.33-1.47-3.82-1.47h-5.15z"></path><rect width="30.55" height="64.4" x="-15.28" y="-32.2" fill="none" rx="0" ry="0" transform="translate(225.43 52.2)"></rect><path fill="#819eff" d="M261.365 84.82q-7.36 0-11.23-4.19-3.86-4.18-3.86-12V34.77q0-7.82 3.86-12 3.87-4.19 11.23-4.19t11.22 4.19q3.86 4.18 3.86 12v5.52h-9.56v-6.16q0-6.35-5.25-6.35-5.24 0-5.24 6.35v35.23q0 6.26 5.24 6.26 5.25 0 5.25-6.26v-12.6h-5.06v-9.2h14.62v21.07q0 7.82-3.86 12-3.86 4.19-11.22 4.19"></path><rect width="30.17" height="66.24" x="-15.09" y="-33.12" fill="none" rx="0" ry="0" transform="translate(261.86 52.2)"></rect><path fill="#819eff" d="M282.985 83.9V19.5h27.6v9.2h-17.48v17.02h13.89v9.2h-13.89V74.7h17.48v9.2z"></path><rect width="27.6" height="64.4" x="-13.8" y="-32.2" fill="none" rx="0" ry="0" transform="translate(297.29 52.2)"></rect><path fill="#819eff" d="M324.285 83.9V28.7h-10.58v-9.2h31.28v9.2h-10.58v55.2z"></path><rect width="31.28" height="64.4" x="-15.64" y="-32.2" fill="none" rx="0" ry="0" transform="translate(329.85 52.2)"></rect><path fill="#819eff" d="M364.585 83.9V19.5h15.27q7.82 0 11.41 3.63 3.59 3.64 3.59 11.18v2.58q0 4.97-1.61 8.09-1.61 3.13-4.92 4.51v.19q7.54 2.57 7.54 13.43v5.52q0 7.45-3.91 11.36-3.91 3.91-11.45 3.91zm10.12-38.18h3.96q3.03 0 4.55-1.56 1.52-1.57 1.52-5.25v-3.59q0-3.49-1.24-5.06-1.25-1.56-3.91-1.56h-4.88zm0 28.98h5.8q2.66 0 3.95-1.43 1.29-1.42 1.29-4.92v-5.61q0-4.42-1.52-6.12-1.52-1.7-5.01-1.7h-4.51z"></path><rect width="31.28" height="64.4" x="-15.64" y="-32.2" fill="none" rx="0" ry="0" transform="translate(380.73 52.2)"></rect><path fill="#819eff" d="M401.755 83.9V19.5h14.99q7.82 0 11.41 3.63 3.59 3.64 3.59 11.18v3.96q0 10.03-6.62 12.69v.19q3.68 1.1 5.19 4.51 1.52 3.4 1.52 9.1v11.32q0 2.76.19 4.46.18 1.7.92 3.36h-10.31q-.55-1.56-.73-2.94-.19-1.38-.19-4.97V64.21q0-4.41-1.42-6.16-1.43-1.75-4.93-1.75h-3.49v27.6zm10.12-36.8h3.68q3.03 0 4.55-1.56 1.52-1.57 1.52-5.25v-4.97q0-3.49-1.24-5.06-1.24-1.56-3.91-1.56h-4.6z"></path><rect width="31.19" height="64.4" x="-15.6" y="-32.2" fill="none" rx="0" ry="0" transform="translate(417.85 52.2)"></rect><path fill="#819eff" d="M438.825 83.9V19.5h27.6v9.2h-17.48v17.02h13.9v9.2h-13.9V74.7h17.48v9.2z"></path><rect width="27.6" height="64.4" x="-13.8" y="-32.2" fill="none" rx="0" ry="0" transform="translate(453.13 52.2)"></rect><path fill="#819eff" d="M472.225 83.9V19.5h27.6v9.2h-17.48v17.02h13.89v9.2h-13.89V74.7h17.48v9.2z"></path><rect width="27.6" height="64.4" x="-13.8" y="-32.2" fill="none" rx="0" ry="0" transform="translate(486.52 52.2)"></rect><path fill="#819eff" d="M503.595 83.9v-9.02l18.77-46.18h-17.85v-9.2h28.71v9.02l-18.77 46.18h18.77v9.2z"></path><rect width="29.63" height="64.4" x="-14.81" y="-32.2" fill="none" rx="0" ry="0" transform="translate(518.91 52.2)"></rect><path fill="#819eff" d="M538.925 83.9V19.5h27.6v9.2h-17.48v17.02h13.89v9.2h-13.89V74.7h17.48v9.2z"></path><rect width="27.6" height="64.4" x="-13.8" y="-32.2" fill="none" rx="0" ry="0" transform="translate(553.23 52.2)"></rect><g transform="matrix(.7093 0 0 .8769 59.4 55)"><filter id="a" width="157.42%" height="162.34%" x="-28.71%" y="-31.17%"><feGaussianBlur in="SourceAlpha" stdDeviation="3"></feGaussianBlur><feOffset dx="3" dy="3" result="oBlur"></feOffset><feFlood flood-color="#FFF" flood-opacity="0"></feFlood><feComposite in2="oBlur" operator="in"></feComposite><feMerge><feMergeNode></feMergeNode><feMergeNode in="SourceGraphic"></feMergeNode></feMerge></filter><g filter="url(#a)" paint-order="stroke"><g transform="translate(0 8.95)scale(4.4763)"><filter id="b" width="217.96%" height="440%" x="-58.98%" y="-170%"><feGaussianBlur in="SourceAlpha" stdDeviation="3"></feGaussianBlur><feOffset dx="3" dy="3" result="oBlur"></feOffset><feFlood flood-color="#FFF" flood-opacity="0"></feFlood><feComposite in2="oBlur" operator="in"></feComposite><feMerge><feMergeNode></feMergeNode><feMergeNode in="SourceGraphic"></feMergeNode></feMerge></filter><path fill="#6936f5" d="M25 15H5.91a1 1 0 0 0 0 2H25a1 1 0 0 1 0 2 1 1 0 0 0 0 2 3 3 0 0 0 0-6" filter="url(#b)" transform="translate(-16.45 -18)"></path></g><g transform="translate(-26.86 26.86)scale(4.4763)"><filter id="c" width="302.3%" height="440%" x="-101.15%" y="-170%"><feGaussianBlur in="SourceAlpha" stdDeviation="3"></feGaussianBlur><feOffset dx="3" dy="3" result="oBlur"></feOffset><feFlood flood-color="#FFF" flood-opacity="0"></feFlood><feComposite in2="oBlur" operator="in"></feComposite><feMerge><feMergeNode></feMergeNode><feMergeNode in="SourceGraphic"></feMergeNode></feMerge></filter><path fill="#6936f5" d="M13 19H5.91a1 1 0 0 0 0 2H13a1 1 0 0 1 0 2 1 1 0 0 0 0 2 3 3 0 0 0 0-6" filter="url(#c)" transform="translate(-10.46 -22)"></path></g><g transform="translate(-13.23 -26.86)scale(4.4763)"><filter id="d" width="245.88%" height="440%" x="-72.94%" y="-170%"><feGaussianBlur in="SourceAlpha" stdDeviation="3"></feGaussianBlur><feOffset dx="3" dy="3" result="oBlur"></feOffset><feFlood flood-color="#FFF" flood-opacity="0"></feFlood><feComposite in2="oBlur" operator="in"></feComposite><feMerge><feMergeNode></feMergeNode><feMergeNode in="SourceGraphic"></feMergeNode></feMerge></filter><path fill="#6936f5" d="M6 13h13a3 3 0 0 0 0-6 1 1 0 0 0 0 2 1 1 0 0 1 0 2H6a1 1 0 0 0 0 2" filter="url(#d)" transform="translate(-13.5 -10)"></path></g></g></g></svg></svg>